<svg width="40" height="40" viewBox="0 0 40 40" fill="none" xmlns="http://www.w3.org/2000/svg">
<path d="M17.6516 4.1883C19.1576 3.5777 20.8422 3.5777 22.3483 4.1883L34.8449 9.25496C35.3832 9.473 35.8441 9.84676 36.1687 10.3284C36.4932 10.81 36.6666 11.3775 36.6666 11.9583V21.35C35.9226 20.6361 35.0809 20.0317 34.1666 19.555V12.955L21.2499 17.9416V21.7716C20.0794 23.0224 19.2225 24.5333 18.7499 26.18V17.94L5.83325 12.9166V28.0466C5.83347 28.1294 5.85831 28.2102 5.90462 28.2787C5.95092 28.3473 6.01659 28.4005 6.09325 28.4316L18.5916 33.4983C18.6433 33.52 18.6966 33.54 18.7499 33.5583V32.1566C19.1783 33.6458 19.9211 35.0257 20.9283 36.2033C19.821 36.3697 18.6893 36.2356 17.6516 35.815L5.15492 30.7483C4.61664 30.5303 4.15571 30.1565 3.83116 29.6749C3.50662 29.1933 3.33325 28.6257 3.33325 28.045V11.96C3.33325 11.3792 3.50662 10.8117 3.83116 10.33C4.15571 9.84843 4.61664 9.47467 5.15492 9.25663L17.6516 4.18996V4.1883ZM21.4083 6.50496C20.505 6.13896 19.4948 6.13896 18.5916 6.50496L15.3999 7.79996L27.9449 12.6783L32.3933 10.9616L21.4066 6.50663L21.4083 6.50496ZM24.4849 14.0133L12.0249 9.16663L7.64992 10.94L20.0016 15.7433L24.4849 14.0133ZM38.3333 29.1666C38.3333 31.5978 37.3675 33.9294 35.6484 35.6484C33.9293 37.3675 31.5977 38.3333 29.1666 38.3333C26.7354 38.3333 24.4039 37.3675 22.6848 35.6484C20.9657 33.9294 19.9999 31.5978 19.9999 29.1666C19.9999 26.7355 20.9657 24.4039 22.6848 22.6848C24.4039 20.9657 26.7354 20 29.1666 20C31.5977 20 33.9293 20.9657 35.6484 22.6848C37.3675 24.4039 38.3333 26.7355 38.3333 29.1666V29.1666ZM26.4233 25.2433C26.267 25.0868 26.055 24.9988 25.8338 24.9987C25.6127 24.9985 25.4006 25.0862 25.2441 25.2425C25.0876 25.3987 24.9996 25.6107 24.9995 25.8319C24.9993 26.053 25.087 26.2652 25.2433 26.4216L27.9883 29.1666L25.2433 31.91C25.0868 32.0664 24.9989 32.2787 24.9989 32.5C24.9989 32.7213 25.0868 32.9335 25.2433 33.09C25.3997 33.2464 25.612 33.3344 25.8333 33.3344C26.0545 33.3344 26.2668 33.2464 26.4233 33.09L29.1666 30.345L31.9099 33.09C31.9874 33.1674 32.0794 33.2289 32.1806 33.2708C32.2818 33.3128 32.3903 33.3344 32.4999 33.3344C32.6095 33.3344 32.718 33.3128 32.8192 33.2708C32.9205 33.2289 33.0124 33.1674 33.0899 33.09C33.1674 33.0125 33.2289 32.9205 33.2708 32.8193C33.3127 32.718 33.3343 32.6095 33.3343 32.5C33.3343 32.3904 33.3127 32.2819 33.2708 32.1807C33.2289 32.0794 33.1674 31.9874 33.0899 31.91L30.3449 29.1666L33.0899 26.4216C33.2462 26.2652 33.3339 26.053 33.3337 25.8319C33.3336 25.6107 33.2456 25.3987 33.0891 25.2425C32.9326 25.0862 32.7205 24.9985 32.4993 24.9987C32.2782 24.9988 32.0662 25.0868 31.9099 25.2433L29.1666 27.99L26.4233 25.245V25.2433Z" fill="white"/>
</svg>
