<svg width="40" height="40" viewBox="0 0 40 40" fill="none" xmlns="http://www.w3.org/2000/svg">
<path d="M17.6516 4.1883C19.1576 3.5777 20.8422 3.5777 22.3483 4.1883L34.8449 9.25496C35.3832 9.473 35.8441 9.84676 36.1687 10.3284C36.4932 10.81 36.6666 11.3775 36.6666 11.9583V21.35C35.9226 20.6361 35.0809 20.0317 34.1666 19.555V12.955L21.2499 17.9416V21.7716C20.0794 23.0224 19.2225 24.5333 18.7499 26.18V17.94L5.83325 12.9166V28.0466C5.83347 28.1294 5.85831 28.2102 5.90462 28.2787C5.95092 28.3473 6.01659 28.4005 6.09325 28.4316L18.5916 33.4983C18.6433 33.52 18.6966 33.54 18.7499 33.5583L19.0649 33.685C19.1633 33.725 19.2616 33.7583 19.3633 33.785C19.7766 34.6616 20.3049 35.475 20.9299 36.2033C19.8221 36.37 18.6898 36.2359 17.6516 35.815L5.15492 30.7483C4.61664 30.5303 4.15571 30.1565 3.83116 29.6749C3.50662 29.1933 3.33325 28.6257 3.33325 28.045V11.96C3.33325 11.3792 3.50662 10.8117 3.83116 10.33C4.15571 9.84843 4.61664 9.47467 5.15492 9.25663L17.6516 4.18996V4.1883ZM21.4083 6.50496C20.505 6.13896 19.4948 6.13896 18.5916 6.50496L15.3999 7.79996L27.9449 12.6783L32.3949 10.9616L21.4066 6.50663L21.4083 6.50496ZM7.64992 10.94L20.0016 15.745L24.4849 14.0116L12.0266 9.16663L7.64992 10.94ZM29.1666 38.335C31.5977 38.335 33.9293 37.3692 35.6484 35.6501C37.3675 33.931 38.3333 31.5994 38.3333 29.1683C38.3333 26.7371 37.3675 24.4056 35.6484 22.6865C33.9293 20.9674 31.5977 20.0016 29.1666 20.0016C26.7354 20.0016 24.4039 20.9674 22.6848 22.6865C20.9657 24.4056 19.9999 26.7371 19.9999 29.1683C19.9999 31.5994 20.9657 33.931 22.6848 35.6501C24.4039 37.3692 26.7354 38.335 29.1666 38.335V38.335ZM27.4999 31.3233L33.5766 25.245C33.7328 25.0885 33.9449 25.0005 34.166 25.0003C34.3871 25.0002 34.5993 25.0879 34.7558 25.2441C34.9122 25.4004 35.0002 25.6124 35.0004 25.8335C35.0005 26.0547 34.9128 26.2668 34.7566 26.4233L28.0899 33.09C28.0125 33.1676 27.9205 33.2291 27.8193 33.2712C27.7181 33.3132 27.6095 33.3348 27.4999 33.3348C27.3903 33.3348 27.2818 33.3132 27.1805 33.2712C27.0793 33.2291 26.9873 33.1676 26.9099 33.09L23.5766 29.7566C23.4992 29.6792 23.4379 29.5872 23.396 29.486C23.3542 29.3848 23.3327 29.2764 23.3328 29.1669C23.3329 29.0574 23.3545 28.949 23.3965 28.8478C23.4385 28.7467 23.4999 28.6548 23.5774 28.5775C23.6549 28.5001 23.7469 28.4387 23.848 28.3969C23.9492 28.3551 24.0577 28.3336 24.1672 28.3337C24.2767 28.3337 24.3851 28.3554 24.4862 28.3974C24.5873 28.4393 24.6792 28.5008 24.7566 28.5783L27.4999 31.3233V31.3233Z" fill="white"/>
</svg>
